<?xml version="1.0" standalone="no"?>
<!DOCTYPE svg PUBLIC "-//W3C//DTD SVG 20010904//EN"
 "http://www.w3.org/TR/2001/REC-SVG-20010904/DTD/svg10.dtd">
<svg version="1.0" xmlns="http://www.w3.org/2000/svg"
 width="1280.000000pt" height="720.000000pt" viewBox="0 0 1280.000000 720.000000"
 preserveAspectRatio="xMidYMid meet">

<g transform="translate(0.000000,720.000000) scale(0.100000,-0.100000)"
fill="#000000" stroke="none">
<path d="M5671 4994 c0 -11 3 -14 6 -6 3 7 2 16 -1 19 -3 4 -6 -2 -5 -13z"/>
<path d="M5680 4949 c0 -4 7 -20 15 -35 8 -16 15 -22 15 -13 0 14 -29 61 -30
48z"/>
<path d="M5736 4877 c3 -10 9 -15 12 -12 3 3 0 11 -7 18 -10 9 -11 8 -5 -6z"/>
<path d="M5710 4878 c0 -3 14 -32 31 -65 16 -32 28 -50 25 -40 -6 20 5 22 22
5 9 -9 12 -9 12 0 0 6 -11 14 -24 18 -13 3 -27 15 -30 27 -5 22 -35 68 -36 55z"/>
<path d="M5780 4751 c0 -16 62 -84 124 -137 59 -50 203 -129 255 -139 82 -17
141 -25 181 -24 33 1 24 4 -35 11 -44 4 -93 15 -110 22 -16 8 -50 17 -75 22
-43 7 -44 8 -15 14 l30 6 -32 11 c-27 10 -31 9 -26 -3 5 -14 -12 -21 -19 -6
-1 4 -20 16 -41 26 -28 14 -34 22 -25 29 9 6 7 7 -5 3 -20 -7 -71 27 -59 39 4
3 0 5 -8 3 -11 -2 -14 4 -12 22 3 20 1 22 -10 12 -11 -9 -24 0 -66 44 -29 30
-52 50 -52 45z"/>
<path d="M6210 4740 c0 -5 5 -10 11 -10 5 0 7 5 4 10 -3 6 -8 10 -11 10 -2 0
-4 -4 -4 -10z"/>
<path d="M5855 4710 c-3 -5 -1 -10 4 -10 6 0 11 5 11 10 0 6 -2 10 -4 10 -3 0
-8 -4 -11 -10z"/>
<path d="M5896 4705 c4 -8 11 -15 16 -15 6 0 5 6 -2 15 -7 8 -14 15 -16 15 -2
0 -1 -7 2 -15z"/>
<path d="M5966 4621 c-14 -5 -16 -10 -8 -15 7 -4 19 0 28 8 17 17 11 19 -20 7z"/>
<path d="M6408 4453 c6 -2 18 -2 25 0 6 3 1 5 -13 5 -14 0 -19 -2 -12 -5z"/>
<path d="M5540 4209 c0 -5 5 -7 10 -4 6 3 10 8 10 11 0 2 -4 4 -10 4 -5 0 -10
-5 -10 -11z"/>
<path d="M5499 4173 c-33 -39 -41 -53 -33 -53 5 0 19 16 32 35 24 37 24 46 1
18z"/>
<path d="M5434 4093 c-5 -10 -20 -35 -33 -55 -12 -21 -19 -38 -14 -38 5 0 17
17 28 38 10 20 26 45 34 55 8 9 10 17 5 17 -5 0 -14 -8 -20 -17z"/>
<path d="M5373 3982 c-29 -18 -104 -214 -123 -322 -6 -36 -13 -73 -15 -82 -3
-17 10 -18 168 -16 l172 2 -150 6 c-131 5 -140 6 -65 10 l85 4 -90 5 -90 6 -3
35 c-2 20 1 47 6 60 8 20 9 14 8 -30 -1 -52 0 -55 25 -58 18 -2 26 2 26 12 0
8 -4 13 -9 10 -4 -3 -8 4 -8 15 0 10 6 22 13 24 9 4 9 8 -2 15 -14 10 -12 45
5 127 l6 30 -16 -29 c-9 -15 -13 -32 -10 -37 3 -5 0 -9 -6 -9 -15 0 -8 29 20
93 12 26 25 45 29 43 5 -3 6 6 3 19 -4 21 -1 24 21 19 14 -2 29 1 33 7 4 7 3
9 -4 6 -5 -4 -17 -4 -26 -1 -15 6 -15 8 1 19 19 14 15 29 -4 17z"/>
<path d="M5342 3825 c0 -16 2 -22 5 -12 2 9 2 23 0 30 -3 6 -5 -1 -5 -18z"/>
<path d="M4473 3755 c0 -44 2 -61 4 -37 2 23 2 59 0 80 -2 20 -4 1 -4 -43z"/>
<path d="M7264 3786 c-3 -8 -4 -25 -2 -38 2 -19 9 -23 43 -25 l40 -1 -35 6
c-32 6 -35 10 -35 40 0 35 -3 40 -11 18z"/>
<path d="M4582 3563 c-1 -86 -6 -123 -14 -126 -10 -4 -10 -6 0 -6 20 -1 23 18
19 140 l-3 114 -2 -122z"/>
<path d="M7450 3573 c0 -12 5 -25 11 -28 16 -11 17 -2 2 25 -12 24 -13 24 -13
3z"/>
<path d="M5617 3563 c18 -2 50 -2 70 0 21 2 7 4 -32 4 -38 0 -55 -2 -38 -4z"/>
<path d="M7526 3525 c-4 -11 -14 -14 -33 -10 -27 5 -27 5 -5 -7 19 -9 26 -9
39 5 9 9 14 19 11 22 -3 3 -8 -1 -12 -10z"/>
<path d="M4471 3404 c0 -11 3 -14 6 -6 3 7 2 16 -1 19 -3 4 -6 -2 -5 -13z"/>
<path d="M4581 3392 c-1 -18 -5 -31 -10 -28 -5 4 -7 -4 -3 -16 4 -16 7 -18 10
-8 3 8 9 17 13 20 5 3 4 19 0 35 l-9 30 -1 -33z"/>
<path d="M4480 3336 c0 -14 4 -27 9 -30 4 -3 11 -23 14 -44 11 -67 75 -178
140 -242 33 -32 64 -57 69 -54 5 3 7 0 6 -7 -4 -15 98 -71 182 -101 63 -21 80
-22 465 -25 220 -1 396 0 390 2 -5 2 -181 5 -390 8 -340 3 -386 6 -437 23 -63
21 -72 40 -17 37 36 -3 34 -2 -48 25 -70 21 -70 33 -4 47 25 5 32 4 26 -5 -5
-9 -2 -10 14 -5 12 3 21 2 21 -4 0 -5 14 -11 32 -13 25 -2 34 -9 38 -28 4 -16
14 -26 28 -28 31 -5 17 -22 -17 -22 -20 0 -30 7 -39 28 -8 18 -10 20 -6 5 3
-15 1 -23 -8 -23 -10 0 -9 -3 2 -10 24 -15 87 -12 94 5 3 10 19 15 42 15 31 0
35 2 24 15 -7 8 -28 15 -47 15 -26 0 -36 5 -40 19 -3 14 -17 20 -51 25 -26 3
-71 18 -101 31 -58 27 -82 27 -34 1 20 -12 23 -16 8 -14 -24 4 -55 -20 -48
-37 7 -21 -16 -28 -33 -11 -8 9 -11 16 -5 16 6 0 8 6 5 14 -3 8 0 17 5 21 6 3
9 11 6 16 -4 5 0 9 8 9 26 0 26 27 0 41 -14 7 -35 25 -47 39 -30 37 -51 49
-37 22 6 -12 15 -24 21 -27 5 -3 7 -12 4 -20 -3 -7 4 -19 16 -25 17 -9 19 -15
10 -23 -9 -9 -15 -7 -26 7 -8 12 -14 15 -14 7 0 -11 -3 -11 -15 -1 -8 7 -15 8
-15 2 0 -14 25 -33 33 -25 4 3 7 -1 7 -10 0 -23 -6 -21 -38 8 -25 24 -26 27
-9 36 18 10 23 44 8 53 -4 3 -7 17 -5 31 3 28 -47 136 -54 116 -2 -6 2 -19 10
-28 7 -9 12 -25 10 -36 -2 -11 1 -17 6 -13 6 4 13 2 17 -4 3 -5 1 -10 -5 -10
-7 0 -9 -7 -6 -16 3 -8 2 -12 -3 -9 -17 10 -21 -12 -6 -31 17 -23 19 -34 5
-34 -5 0 -10 6 -10 13 0 8 -10 22 -22 33 -18 17 -18 13 6 -28 43 -75 21 -56
-34 28 -39 60 -48 82 -45 107 4 29 4 30 -5 7 -7 -19 -8 -12 -4 30 4 49 3 52
-8 33 -13 -22 -14 -21 -26 19 -11 34 -11 43 0 49 10 7 9 9 -4 9 -12 0 -18 -8
-18 -24z m286 -293 c-6 -6 -36 9 -36 18 0 5 9 4 20 -3 10 -7 18 -14 16 -15z
m83 -129 c2 -2 2 -6 0 -9 -8 -7 -49 7 -49 17 0 8 38 2 49 -8z"/>
<path d="M4587 3337 c-4 -11 -4 -24 0 -30 4 -6 7 -27 6 -47 0 -30 0 -31 4 -6
4 23 7 26 15 15 7 -10 8 -9 3 6 -4 11 -10 34 -14 50 -6 25 -8 27 -14 12z"/>
<path d="M4516 3325 c4 -8 8 -15 10 -15 2 0 4 7 4 15 0 8 -4 15 -10 15 -5 0
-7 -7 -4 -15z"/>
<path d="M4550 3310 c0 -5 5 -10 10 -10 6 0 10 5 10 10 0 6 -4 10 -10 10 -5 0
-10 -4 -10 -10z"/>
<path d="M4570 3210 c0 -5 5 -10 11 -10 5 0 7 5 4 10 -3 6 -8 10 -11 10 -2 0
-4 -4 -4 -10z"/>
<path d="M4838 2953 c7 -3 16 -2 19 1 4 3 -2 6 -13 5 -11 0 -14 -3 -6 -6z"/>
<path d="M5046 2938 c3 -5 74 -8 157 -7 111 1 142 3 117 10 -42 11 -280 8
-274 -3z"/>
<path d="M5173 2913 c32 -2 81 -2 110 0 29 2 3 3 -58 3 -60 0 -84 -1 -52 -3z"/>
<path d="M5378 2913 c12 -2 32 -2 45 0 12 2 2 4 -23 4 -25 0 -35 -2 -22 -4z"/>
<path d="M5060 2868 c0 -9 46 -14 98 -9 68 5 48 18 -28 17 -38 -1 -70 -4 -70
-8z"/>
<path d="M5218 2863 c7 -3 16 -2 19 1 4 3 -2 6 -13 5 -11 0 -14 -3 -6 -6z"/>
<path d="M8038 2673 c-17 -4 -18 -31 -18 -379 l0 -374 40 0 40 0 0 380 0 380
-22 -1 c-13 -1 -31 -3 -40 -6z"/>
<path d="M7546 2547 c-12 -9 -17 -23 -14 -46 4 -43 27 -59 65 -45 21 7 29 17
31 40 5 53 -41 81 -82 51z"/>
<path d="M7680 2540 c-11 -11 -20 -28 -20 -38 0 -24 31 -52 58 -52 47 0 69 61
34 93 -25 22 -48 21 -72 -3z"/>
<path d="M4980 2360 c-24 -24 -25 -38 -4 -68 18 -26 65 -30 84 -7 18 22 15 66
-6 82 -25 19 -51 16 -74 -7z"/>
<path d="M5210 2371 l-35 -6 -5 -247 c-5 -246 -5 -246 -30 -274 -51 -55 -132
-69 -207 -34 -68 30 -84 67 -81 179 2 100 -2 108 -54 110 -43 2 -52 -173 -14
-255 43 -93 117 -129 251 -122 74 4 91 8 127 34 25 17 52 49 67 79 26 48 26
54 29 297 2 136 0 247 -5 247 -4 -1 -24 -4 -43 -8z"/>
<path d="M6455 2371 l-30 -6 -3 -176 -2 -177 -31 -6 c-18 -3 -155 -6 -305 -6
l-274 0 0 173 0 174 -69 13 c-226 42 -362 -75 -321 -277 10 -46 21 -66 54 -99
48 -49 93 -64 189 -64 l68 0 -3 -42 c-4 -57 -39 -82 -116 -85 -55 -1 -57 -2
-63 -32 -8 -40 1 -45 76 -44 111 1 185 66 185 161 l0 40 328 4 c180 2 335 8
345 12 15 7 17 28 17 227 0 120 -3 218 -7 218 -5 -1 -21 -4 -38 -8z m-727
-228 l3 -143 -66 0 c-87 0 -132 19 -150 64 -20 47 -19 120 1 162 24 50 56 64
139 61 l70 -2 3 -142z"/>
<path d="M6820 2371 l-35 -6 -5 -255 c-3 -177 -9 -262 -17 -277 -16 -27 -71
-46 -120 -41 -35 3 -37 1 -44 -29 -3 -18 -4 -35 -1 -38 12 -12 134 -4 172 11
48 19 87 78 96 145 l6 44 479 -3 478 -3 3 211 3 211 -49 14 c-27 8 -80 15
-116 15 -87 0 -162 -36 -205 -98 -27 -39 -30 -52 -30 -115 0 -57 5 -80 23
-110 12 -21 22 -40 22 -43 0 -6 -562 -5 -587 2 -23 6 -23 8 -23 185 0 98 -3
179 -7 181 -5 2 -24 2 -43 -1z m928 -228 l3 -143 -73 0 c-40 0 -84 6 -98 13
-78 39 -79 219 -1 262 17 10 50 14 96 12 l70 -2 3 -142z"/>
<path d="M6416 1834 c-22 -21 -20 -50 4 -74 32 -32 75 -24 91 18 21 54 -53 98
-95 56z"/>
<path d="M6428 1493 l-28 -4 0 -314 0 -313 66 -12 c127 -24 226 4 279 80 24
34 29 54 33 119 5 92 -7 138 -51 187 -52 61 -129 79 -209 50 l-38 -14 0 114
c0 85 -3 114 -12 113 -7 -1 -25 -4 -40 -6z m234 -292 c30 -27 33 -34 36 -105
5 -88 -7 -125 -50 -161 -25 -21 -40 -25 -99 -25 l-69 0 0 148 c0 171 -1 170
97 171 44 1 58 -4 85 -28z"/>
<path d="M4749 1363 c-69 -152 -200 -493 -193 -505 12 -19 84 -5 84 17 0 7 10
38 21 69 l22 56 133 0 133 0 20 -57 c29 -80 34 -88 65 -91 52 -6 57 2 36 55
-10 26 -44 113 -75 193 -31 80 -75 186 -97 237 l-41 93 -38 0 c-38 0 -39 -1
-70 -67z m125 -158 c27 -69 46 -129 43 -132 -6 -6 -199 -4 -205 2 -3 3 72 204
90 238 5 9 12 17 16 17 4 0 29 -56 56 -125z"/>
<path d="M6045 1295 c-5 -2 -22 -6 -36 -9 -21 -5 -25 -10 -22 -33 l5 -28 82 3
c80 4 84 3 105 -23 11 -15 21 -41 21 -57 0 -30 0 -30 -46 -23 -66 9 -138 -10
-179 -50 -31 -28 -35 -38 -35 -81 0 -61 28 -110 75 -130 36 -15 130 -18 209
-8 l46 7 0 169 c0 194 -6 215 -75 248 -37 18 -118 26 -150 15z m150 -310 l0
-70 -52 -3 c-68 -4 -119 17 -125 53 -13 66 28 96 122 92 l55 -2 0 -70z"/>
<path d="M7005 1285 c-78 -27 -135 -118 -135 -215 0 -160 143 -271 278 -215
85 36 127 106 127 215 0 57 -5 84 -22 115 -52 98 -146 136 -248 100z m143 -80
c38 -32 57 -104 47 -177 -11 -75 -54 -118 -120 -118 -89 0 -139 85 -120 207
15 101 121 149 193 88z"/>
<path d="M7481 1278 c-203 -100 -121 -461 99 -435 122 15 190 96 190 227 0 77
-22 131 -71 176 -62 57 -143 69 -218 32z m154 -64 c13 -8 30 -33 39 -55 32
-80 12 -200 -39 -233 -31 -20 -104 -20 -133 0 -37 26 -55 73 -55 144 0 71 18
118 55 144 29 20 102 20 133 0z"/>
<path d="M5250 1274 c-83 -36 -122 -102 -123 -209 0 -74 25 -145 63 -180 45
-41 135 -55 203 -31 l37 14 0 -84 0 -84 40 0 40 0 0 284 0 284 -44 11 c-63 16
-174 13 -216 -5z m158 -50 c21 -6 22 -10 22 -149 l0 -142 -25 -11 c-14 -7 -48
-12 -75 -12 -67 0 -108 35 -121 103 -10 55 1 125 25 162 29 45 107 66 174 49z"/>
<path d="M5682 1277 l-42 -10 2 -206 3 -206 35 0 35 0 3 182 2 181 40 7 c22 4
57 4 79 0 37 -6 39 -5 43 24 3 20 0 32 -10 36 -22 8 -143 4 -190 -8z"/>
<path d="M7945 1285 c-5 -2 -22 -6 -37 -9 l-28 -6 0 -211 0 -210 38 3 37 3 3
182 2 182 46 7 c58 8 102 -4 127 -38 17 -22 20 -47 25 -182 l5 -156 33 0 34 0
0 158 c0 144 -2 162 -22 202 -32 62 -72 80 -173 79 -44 0 -84 -2 -90 -4z"/>
</g>
</svg>
